<?xml version="1.0"?>
<svg xmlns="http://www.w3.org/2000/svg" xmlns:xlink="http://www.w3.org/1999/xlink" xml:space="preserve" width="356" height="496.31" version="1.0" viewBox="0 0 356 496.31">
  <pattern id="a" width="56.44" height="56.44" x="-221.17" y="-28.14" patternUnits="userSpaceOnUse" style="overflow:visible" viewBox="0 -56.44 56.44 56.44">
    <path d="M0-56.44h56.44V0H0z" style="fill:none"/>
    <path d="M0-56.44h56.44V0H0z" style="fill:none"/>
    <path d="M0-56.44h56.44V0H0z" style="fill:#f4f1f0"/>
    <path d="M54.67 0v-56.44M50.6 0v-56.44M46.53 0v-56.44M42.46 0v-56.44M38.39 0v-56.44M34.32 0v-56.44M30.26 0v-56.44M26.19 0v-56.44M22.12 0v-56.44M18.05 0v-56.44M13.98 0v-56.44M9.91 0v-56.44M5.85 0v-56.44M1.78 0v-56.44" style="fill:none;stroke:#d1c4be;stroke-width:.25;stroke-miterlimit:10"/>
  </pattern>
  <pattern id="c" width="82.02" height="82.02" x="-221.17" y="-28.14" patternUnits="userSpaceOnUse" style="overflow:visible" viewBox="0 -82.02 82.02 82.02">
    <path d="M0-82.02h82.02V0H0z" style="fill:none"/>
    <path d="M0-82.02h82.02V0H0z" style="fill:none"/>
    <path d="M0-82.02h82.02V0H0z" style="fill:#ddd6d3"/>
    <path d="M0-68.35h82.02M0-41.01h82.02M0-13.67h82.02M41.01-82.02V0M13.67-82.02V0m54.68-82.02V0" style="fill:none;stroke:#c7b6b1;stroke-width:.25;stroke-miterlimit:10"/>
  </pattern>
  <path d="M356 49.75v435.44h-.45v11.11H349v-.25h-10.11v.25h-6.56v-.25H192.67v.25h-6.56v-.25H176v.25h-6.56v-.25H28.78v.25h-6.56v-.25H12.11v.25H5.56v-11.11H0V48.08h127.67v1.67h118.14V.25c0-.14.11-.25.25-.25h2.22c13.96 0 27.55 5.76 37.29 15.81 8.95 9.24 13.59 20.95 13.5 33.94z" style="fill:#fff"/>
  <path d="M8.19 450.27h343.53v45.53H8.19z" style="fill:#f4f1f0"/>
  <pattern xlink:href="#a" id="b" patternTransform="matrix(2.0293 0 0 -2.0293 16720.023 -32207.518)"/>
  <path d="M11.06 60.81h333.33v404.44H11.06z" style="fill:url(#b)"/>
  <pattern xlink:href="#c" id="d" patternTransform="rotate(180 -7666.16 -8182.774)"/>
  <path d="M270.3 165.25h74.08v121.11H270.3z" style="fill:url(#d)"/>
  <pattern xlink:href="#c" id="e" patternTransform="rotate(180 -7666.16 -8182.774)"/>
  <path d="M13 62.47h184.45v102.78H13z" style="fill:url(#e)"/>
  <path d="M135.9 113.09c-5.81 0-10.52-4.71-10.52-10.52V74.96h21.04v27.61c0 5.81-4.71 10.52-10.52 10.52m10.52-26.03h-21.04m-24.94-2.4h-11.5c-4.02 0-7.29-3.26-7.29-7.29V74.7c0-4.02 3.26-7.29 7.29-7.29h11.5c4.02 0 7.29 3.26 7.29 7.29v2.67c-.01 4.03-3.27 7.29-7.29 7.29" style="fill:#535353"/>
  <path d="M100.44 84.66h-11.5c-4.02 0-7.29-3.26-7.29-7.29V74.7c0-4.02 3.26-7.29 7.29-7.29h11.5c4.02 0 7.29 3.26 7.29 7.29v2.67c-.01 4.03-3.27 7.29-7.29 7.29" style="fill:#535353"/>
  <path d="M100.16 83.83H89.23c-3.72 0-6.73-3.01-6.73-6.73v-2.12c0-3.72 3.01-6.73 6.73-6.73h10.93c3.72 0 6.73 3.01 6.73 6.73v2.12c0 3.72-3.01 6.73-6.73 6.73" style="fill:#535353"/>
  <path d="M100.16 83.83H89.23c-3.72 0-6.73-3.01-6.73-6.73v-2.12c0-3.72 3.01-6.73 6.73-6.73h10.93c3.72 0 6.73 3.01 6.73 6.73v2.12c0 3.72-3.01 6.73-6.73 6.73m-5.46-8.95v-8.52m-37.13 92.93h-.35c-10.3 0-18.65-8.35-18.65-18.65V86.12c0-10.3 8.35-18.65 18.65-18.65h.35c10.3 0 18.65 8.35 18.65 18.65v54.51c0 10.3-8.35 18.66-18.65 18.66" style="fill:#535353"/>
  <path d="M57.39 156.79c-9.02 0-16.34-7.32-16.34-16.34V86.3c0-9.02 7.31-16.34 16.34-16.34 9.02 0 16.34 7.32 16.34 16.34v54.16c0 9.02-7.32 16.33-16.34 16.33" style="fill:#535353"/>
  <path d="M57.39 110.72a2.49 2.49 0 0 1 0 4.98c-1.37 0-2.49-1.12-2.49-2.49 0-1.38 1.11-2.49 2.49-2.49m56.08-46.87h45.41V74.9h-45.41z" style="fill:#535353"/>
  <path d="M157.49 63.6h33.25v33.33h-33.25z" style="fill:#535353" transform="rotate(90 174.12 80.263)"/>
  <path d="M157.45 95.24h33.34M174.8 80.13a1.25 1.25 0 0 0-1.77.08c-.06.07-.12.15-.17.23m1.73 2.59a1.86 1.86 0 0 0 .48-2.58c-.08-.11-.17-.22-.27-.31" style="fill:#535353"/>
  <path d="M170.5 81.12a2.624 2.624 0 0 0 4.1 1.91m-.27-5.74a3.83 3.83 0 0 0-3.83 3.83m7.67 0a3.83 3.83 0 0 0-3.83-3.83m-.97 8.62a4.79 4.79 0 0 0 4.79-4.79m-10.22-.64c0 3 2.43 5.43 5.43 5.43m.85-11.28a5.866 5.866 0 0 0-6.27 5.43c-.01.14-.01.28-.01.42m12.35.22c0-3.35-2.72-6.07-6.07-6.07" style="fill:#535353"/>
  <path d="M9.52 166.31h34.29v75H9.52z" style="fill:#535353" transform="rotate(180 26.665 203.812)"/>
  <path d="M43.85 215.74h-1.61m1.61-22.07h-1.61m-22.52 14.57h6.94m-.81-4.57-6.43 3.02m0 0c-.43.16-.64.62-.48 1.03.12.31.43.52.78.52m7.76-5.85c.8-.43 1.09-1.41.64-2.19-.45-.77-1.47-1.05-2.27-.61-.49.27-.81.75-.85 1.29m8.61 7.36h-6.95m.82-4.57 6.43 3.02m-.3 1.55c.46 0 .83-.36.83-.8 0-.33-.21-.63-.54-.75m-6.42-4.3c-.37.22-.48.69-.25 1.04.06.1.15.18.25.24m14.76 37.77v-75.13m-18.93 153.6c-6.12 0-11.09-4.96-11.09-11.09s4.96-11.09 11.09-11.09 11.09 4.96 11.09 11.09-4.96 11.09-11.09 11.09m0 113.08c-6.12 0-11.09-4.96-11.09-11.09s4.96-11.09 11.09-11.09 11.09 4.96 11.09 11.09-4.96 11.09-11.09 11.09" style="fill:#535353"/>
  <path d="M87.1 409.71c4.23 1.98 8.99 2.51 13.56 1.53 1.84.08 3.67.23 5.5.46 2.67.34 5.37.34 8.04 0 .21-.65.36-1.32.48-1.99h12.58v-88.69h-13.39c-.01-.6-.01-1.21-.02-1.81v.28c0-.76-.61-1.37-1.37-1.37-.06 0-.11 0-.17.01-3.1 1.2-6.45 1.61-9.75 1.2-4.72-.59-9.5-.6-14.22-.02-2.16.49-4.3 1.06-6.42 1.72H14.68a1.92 1.92 0 0 0-3.84 0v88.69a1.92 1.92 0 0 0 3.84 0H87.1z" style="fill:#535353"/>
  <path d="M33.04 362.01c-4.41-.69-8.9-.69-13.3 0m-.53-32.43c4.98.44 9.99.44 14.97 0m-1.14 32.43c1.92.74 3.99 1.02 6.04.82" style="fill:#535353"/>
  <path d="M39.13 328.63c-2.52-.29-5.32.08-7.63 1.14m7.58 33.06c.16-2.37.25-4.75.28-7.12m-.37-18.56c.11-2.84.16-5.68.14-8.51m-22.07 32.65c.75.61 1.72.87 2.68.72m-.53-32.43q-1.245-.105-2.49 0m1.04 21.21c-.68 3.46-.92 6.99-.71 10.51m.71-10.51c.22-5.85-.02-11.7-.73-17.51m-.32-3.7c-.02 1.24.09 2.48.33 3.69m2.7 37.17c4.41.69 8.9.69 13.3 0m1.13 32.43c-4.98-.44-9.99-.44-14.97 0m19.88-33.25c-2.05-.21-4.12.07-6.04.82" style="fill:#535353"/>
  <path d="M31.5 402.68c2.31 1.06 4.87 1.46 7.39 1.17m.48-27.11c-.03-2.38-.13-4.75-.28-7.12m.04 34.2c.02-2.84-.02-5.31-.14-8.15m-19.25-25.23c-.95-.15-1.93.11-2.68.72m-.35 31.71q1.245.105 2.49 0m-2.14-31.71c-.21 3.52.03 7.05.71 10.51m-.73 17.51c.71-5.81.95-11.67.73-17.51m-.73 17.51q-.36 1.83-.33 3.69m65.2-81.85h6.64m1.44 88.69c.79-8.51.98-17.06.57-25.59m-1.13-47.66c-.12 15.89.26 31.79 1.13 47.66m-1.13-47.66c.04-5.16-.26-10.32-.88-15.44m25.63 90.68c1.03-3.19.92-6.65-.32-9.76m-1.53-33.43c-.69 11.16-.17 22.37 1.53 33.43m-1.53-33.43c.75-12.17 1.26-24.36 1.51-36.55m0 0q.135-6.375 0-12.75m-99.16 90.5v-88.69m73.65-1.72c-2.16.49-4.3 1.06-6.42 1.72m43.51 86.86h-10.55m-72.39 0v-11.61m-27.8-73.48h74.08m1.23 86.92h-2.9m38.33-86.92v85.09m-35.27 0H14.68m99.21-85.09h11.53m-95.28 33.12c.6.05 1.2.05 1.79 0m14.08-8.29c.35-3.77.48-7.56.4-11.35m-.16 20.32q.03-4.485-.24-8.97m-5.24 8.15a10 10 0 0 0 5.31.84m-5.31-.84c-2.95-.17-5.9-.12-8.84.14m-1.56-2.65c-.17.87-.25 1.76-.24 2.65m.24-2.65q.495-4.05.57-8.13m-.55-7.78c-.16 2.61.03 5.22.55 7.78" style="fill:#535353"/>
  <path d="M32.31 336.84a2.42 2.42 0 0 0-1.92.52m1.92-.52c3.17.49 6.4.49 9.56 0m4.54-.57a9.34 9.34 0 0 0-4.53.57m-11.74 58.97c.6.05 1.2.05 1.79 0m14.08-8.29c.35-3.77.48-7.56.4-11.35m-.16 20.32q.03-4.485-.24-8.97m-5.24 8.15a10 10 0 0 0 5.31.84m-5.31-.84c-2.95-.17-5.9-.12-8.84.14m-1.56-2.66c-.17.87-.25 1.76-.24 2.65m.24-2.65q.495-4.05.57-8.13" style="fill:#535353"/>
  <path d="M30.39 377.25c-.16 2.61.03 5.22.55 7.78m1.37-8.3a2.42 2.42 0 0 0-1.92.52m1.92-.52c3.17.49 6.4.49 9.56 0m4.54-.57a9.34 9.34 0 0 0-4.53.57m.6-.21v-20.15m0-19.74v-13.84M13.8 422.41c0-2.98 2.42-5.4 5.4-5.4s5.4 2.42 5.4 5.4-2.42 5.4-5.4 5.4-5.4-2.42-5.4-5.4m5.41 0v-2.43m0 2.43v2.43m0-2.43h-2.43m2.43 0h2.43m6.85-114.61.35 4.85m-9.14-4.6 8.38-.6m-8.39 5.86-.35-4.85m9.14 4.6-8.38.6m8.39-5.86a.38.38 0 0 0-.41-.35m-8.38.6a.38.38 0 0 0-.35.41m.34 4.85c.02.21.2.37.41.35m8.38-.6c.21-.02.37-.2.35-.41m-1.09.46.05.75m-9.14-4.6.75-.05m-.75 5.31-.35-4.85m9.14 4.6-8.38.61m-.41-5.62a.38.38 0 0 0-.35.41m.35 4.85c.02.21.2.37.41.35m8.38-.6c.21-.02.37-.2.35-.41m107.6-147.55h34.29v75h-34.29zm-.03 49.43h1.6m-1.6-22.07h1.6m8.63 14.57h6.95m-.82-4.57-6.42 3.02" style="fill:#535353"/>
  <path d="M145.3 206.69c-.43.16-.64.62-.48 1.03.12.31.43.52.78.52m7.75-5.85c.8-.43 1.09-1.41.64-2.19-.45-.77-1.47-1.05-2.27-.61-.49.27-.81.75-.85 1.29m8.61 7.36h-6.94m.81-4.57 6.43 3.02m-.3 1.55c.46 0 .83-.36.83-.8 0-.33-.21-.63-.54-.75m-6.42-4.3c-.37.22-.48.69-.25 1.04.06.1.15.18.25.24m-16.39 37.77v-75.13m173-83.33h33v77.53h-33zm-.04 50.69h1.6m-1.6-22.07h1.6m8 14.57h6.94m-.81-4.57-6.43 3.02" style="fill:#535353"/>
  <path d="M319.22 124.62c-.43.16-.64.62-.48 1.03.12.31.43.52.78.52m7.76-5.85c.8-.43 1.09-1.41.64-2.19s-1.47-1.05-2.27-.61c-.49.27-.81.75-.85 1.29m8.61 7.36h-6.95m.82-4.57 6.42 3.02m-.29 1.55c.46 0 .83-.36.83-.8 0-.33-.21-.63-.54-.75m-6.42-4.3c-.37.22-.48.69-.25 1.04.06.1.15.18.25.24m-15.76 39.03V82.98" style="fill:#535353"/>
  <path d="M266.14 210.28h121.11v33.06H266.14z" style="fill:#535353" transform="rotate(-90 326.696 226.806)"/>
  <path d="M314.61 300.63v17.83c0 3.61-2.92 6.53-6.53 6.53h-10.76c-5.75 0-10.4-4.66-10.4-10.4v-10.16c0-5.77 4.68-10.45 10.45-10.45h10.58a6.643 6.643 0 0 1 6.66 6.65" style="fill:#535353"/>
  <path d="M298 296.74a8.31 8.31 0 0 0-8.31 8.31m17.66-8.31H298m-8.31 8.31v8.86m8.31 8.31h9.35m-17.66-8.31a8.31 8.31 0 0 0 8.31 8.31m7.97 2.77c.76 0 1.38-.62 1.38-1.38m0-28.25c0-.76-.62-1.38-1.38-1.38m1.38 29.62v-1.38m0-25.48v-1.38m7.26 40.83v17.83c0 3.61-2.92 6.53-6.53 6.53h-10.76c-5.75 0-10.4-4.66-10.4-10.4v-10.16c0-5.77 4.68-10.45 10.45-10.45h10.58c3.68 0 6.66 2.98 6.66 6.65" style="fill:#535353"/>
  <path d="M298 332.31a8.31 8.31 0 0 0-8.31 8.31m17.66-8.31H298m-8.31 8.3v8.86m8.31 8.31h9.35m-17.66-8.31a8.31 8.31 0 0 0 8.31 8.31m7.97 2.77c.76 0 1.38-.62 1.38-1.38m0-28.25c0-.76-.62-1.38-1.38-1.38m1.38 29.63v-1.39m0-25.47v-1.39" style="fill:#535353"/>
  <path d="M310.31 286.6h33.05v171.31h-33.05z" style="fill:#535353" transform="rotate(180 326.835 372.26)"/>
  <path d="M343.22 433.03v-62.35c0-3.95-3.2-7.15-7.15-7.15h-4.88c-3.95 0-7.15 3.2-7.15 7.15v62.35c0 3.95 3.2 7.15 7.15 7.15h4.88c3.95-.01 7.15-3.2 7.15-7.15m-9.56-56.73v52m-110.29-32.92v-46.37c0-1.5-1.21-2.71-2.71-2.71h-40.25c-1.6 0-2.9 1.3-2.9 2.9v44.9c0 1.5 1.21 2.71 2.71 2.71h41.72c.79 0 1.43-.64 1.43-1.43m0 2.87v46.41c0 1.5-1.21 2.71-2.71 2.71h-40.25c-1.6 0-2.9-1.3-2.9-2.9v-44.94c0-1.5 1.21-2.71 2.71-2.71h41.72c.79-.01 1.43.63 1.43 1.43" style="fill:#535353"/>
  <path d="M185.21 431.51c1.17 3.54 1.93 7.2 2.27 10.9m2.6.95c-.6.6-1.57.59-2.17-.01-.25-.25-.4-.58-.44-.94m13.27-5.46c-3.48 2.25-7.04 4.39-10.66 6.41m10.66-6.41a2.93 2.93 0 0 1 1.66 0m-12.67-12.15c-.82.3-1.64.57-2.48.79m15.78 9.23c.43.72.19 1.65-.53 2.08-.03.02-.06.04-.09.05m-4.32-14.85c2.2 3.95 3.33 8.4 3.29 12.93" style="fill:#535353"/>
  <path d="M203.03 434.82a8.9 8.9 0 0 1-1.91-3.78m-18.03-5.45c1.38-.2 2.78-.2 4.16 0m-4.16 1.94a2.5 2.5 0 0 1 0-1.94m2.12 5.92c-.84-1.25-1.55-2.59-2.12-3.98m10.71-18.3c-2.54-.38-5.04-.92-7.51-1.63m-.62 2.17c.78 3.71 1.36 7.46 1.74 11.23m9.98-10.91c2.52 3.24 3.44 7.45 2.52 11.45m-1.04-1.28a29.2 29.2 0 0 1-5.74 5.31m-.01 0a5.11 5.11 0 0 1-5.7-4.45c0-.04-.01-.08-.01-.12" style="fill:#535353"/>
  <path d="M185.67 409.77c-.17-.78.07-1.59.63-2.17m6.78-.67a8.2 8.2 0 0 1-3.91 1.42m3.91-1.42c1.7.63 3.2 1.73 4.31 3.16m-.81 12.63c1.07-.49 2.19-.89 3.33-1.18m-12.43-70.29a49.4 49.4 0 0 1-2.27 10.9m2.27-10.9c.08-.84.82-1.46 1.67-1.38.35.03.68.19.94.44m-.01-.01c3.62 2.02 7.17 4.16 10.66 6.41m1.66.01c-.54.16-1.12.16-1.66 0m-13.49 11.36c.84.22 1.67.49 2.48.79m12.67-12.15c.75.38 1.05 1.29.67 2.03-.02.03-.03.06-.05.09m-1.64-.2c.04 4.52-1.09 8.97-3.29 12.93" style="fill:#535353"/>
  <path d="M201.11 362.63c.33-1.4.98-2.69 1.91-3.78m-15.77 9.23c-1.38.2-2.78.2-4.16 0m0 0a2.5 2.5 0 0 1 0-1.94m0 0c.57-1.39 1.28-2.73 2.12-3.98m1.08 23.91c2.46-.71 4.97-1.26 7.51-1.63m-6.39-11.77c-.37 3.77-.96 7.52-1.74 11.23m14.24-11.77c.92 4 0 8.21-2.52 11.45m-4.27-15.48c2.14 1.51 4.08 3.29 5.74 5.31m-11.45-.74a5.11 5.11 0 0 1 5.59-4.58c.04 0 .08.01.12.01m-6.83 17.97a2.41 2.41 0 0 1-.63-2.17" style="fill:#535353"/>
  <path d="M189.17 385.32c1.4.13 2.75.62 3.91 1.42m4.31-3.16a9.7 9.7 0 0 1-4.31 3.16m6.83-14.61c-1.14-.29-2.26-.69-3.33-1.18m-6.87 14.44v11.42m4.96-43.86h28.7m-33.66 55.33v-11.47m4.96 43.91h28.7m106.74-243.75h11.67m-3.3-10.55v20.56c0 1.84-1.49 3.33-3.33 3.33h-17.78c-1.84 0-3.33-1.49-3.33-3.33v-20.56c0-1.84 1.49-3.33 3.33-3.33h17.78a3.32 3.32 0 0 1 3.33 3.33m-19.15 69.55c1.93 0 3.5-1.49 3.5-3.33s-1.57-3.33-3.5-3.33-3.5 1.49-3.5 3.33 1.56 3.33 3.5 3.33m0 12.78c1.93 0 3.5-1.49 3.5-3.33s-1.57-3.33-3.5-3.33-3.5 1.49-3.5 3.33 1.56 3.33 3.5 3.33m15.16 0c1.93 0 3.5-1.49 3.5-3.33s-1.57-3.33-3.5-3.33-3.5 1.49-3.5 3.33 1.56 3.33 3.5 3.33m0-12.78c1.93 0 3.5-1.49 3.5-3.33s-1.57-3.33-3.5-3.33-3.5 1.49-3.5 3.33 1.56 3.33 3.5 3.33" style="fill:#535353"/>
  <path d="M162.67 209.67h57.06v33.89h-57.06z" style="fill:#535353" transform="rotate(90 191.194 226.61)"/>
  <path d="M174.81 166.25h33.33v33.33h-33.33z" style="fill:#535353" transform="rotate(-90 191.472 182.917)"/>
  <path d="M206.49 199.58v-33.33m-15.02 12.08v9.17m3.97-6.87-7.94 4.58m7.94 0-7.94-4.58m144.52 43.53v3.88m0 0c0 1.52-1.23 2.75-2.75 2.75m0 0v4.66m0 0h2.53m.22-11.29h-2.75m-2.75 0v3.88m2.75 2.75c-1.52 0-2.75-1.23-2.75-2.75m2.75 7.41h-2.52m-.23-11.29h2.75m-3.92 0v2.99m0 0c0 .79-.64 1.43-1.43 1.43m0 .01v6.86m-1.43-11.29v2.99m1.43 1.44c-.79 0-1.43-.64-1.43-1.43m1.93-3v2.72m-.93-2.72v2.72" style="fill:#535353"/>
  <path d="M136.9 112.09c-5.81 0-10.52-4.71-10.52-10.52V73.96h21.04v27.61c0 5.81-4.71 10.52-10.52 10.52" style="fill:#fff;stroke:#797979;stroke-width:.5;stroke-linecap:round;stroke-linejoin:round;stroke-miterlimit:10"/>
  <path d="M147.42 86.06h-21.04" style="fill:none;stroke:#797979;stroke-width:.5;stroke-linecap:round;stroke-linejoin:round;stroke-miterlimit:10"/>
  <path d="M101.44 83.66h-11.5c-4.02 0-7.29-3.26-7.29-7.29V73.7c0-4.02 3.26-7.29 7.29-7.29h11.5c4.02 0 7.29 3.26 7.29 7.29v2.67c-.01 4.03-3.27 7.29-7.29 7.29" style="fill:#fff;stroke:#797979;stroke-width:.5;stroke-linecap:round;stroke-linejoin:round;stroke-miterlimit:10"/>
  <path d="M101.44 83.66h-11.5c-4.02 0-7.29-3.26-7.29-7.29V73.7c0-4.02 3.26-7.29 7.29-7.29h11.5c4.02 0 7.29 3.26 7.29 7.29v2.67c-.01 4.03-3.27 7.29-7.29 7.29" style="fill:#fff;stroke:#797979;stroke-width:.5;stroke-linecap:round;stroke-linejoin:round;stroke-miterlimit:10"/>
  <path d="M101.16 82.83H90.23c-3.72 0-6.73-3.01-6.73-6.73v-2.12c0-3.72 3.01-6.73 6.73-6.73h10.93c3.72 0 6.73 3.01 6.73 6.73v2.12c0 3.72-3.01 6.73-6.73 6.73" style="fill:#fff;stroke:#797979;stroke-width:.5;stroke-linecap:round;stroke-linejoin:round;stroke-miterlimit:10"/>
  <path d="M101.16 82.83H90.23c-3.72 0-6.73-3.01-6.73-6.73v-2.12c0-3.72 3.01-6.73 6.73-6.73h10.93c3.72 0 6.73 3.01 6.73 6.73v2.12c0 3.72-3.01 6.73-6.73 6.73" style="fill:#fff;stroke:#797979;stroke-width:.5;stroke-linecap:round;stroke-linejoin:round;stroke-miterlimit:10"/>
  <path d="M95.7 73.88v-8.52" style="fill:none;stroke:#797979;stroke-width:.5;stroke-linecap:round;stroke-linejoin:round;stroke-miterlimit:10"/>
  <path d="M58.57 158.29h-.35c-10.3 0-18.65-8.35-18.65-18.65V85.12c0-10.3 8.35-18.65 18.65-18.65h.35c10.3 0 18.65 8.35 18.65 18.65v54.51c0 10.3-8.35 18.66-18.65 18.66" style="fill:#fff;stroke:#797979;stroke-width:.5;stroke-linecap:round;stroke-linejoin:round;stroke-miterlimit:10"/>
  <path d="M58.39 155.79c-9.02 0-16.34-7.32-16.34-16.34V85.3c0-9.02 7.32-16.34 16.34-16.34h0c9.02 0 16.34 7.31 16.34 16.34v54.16c0 9.02-7.32 16.33-16.34 16.33" style="fill:none;stroke:#797979;stroke-width:.5;stroke-linecap:round;stroke-linejoin:round;stroke-miterlimit:10"/>
  <path d="M58.39 109.72c1.38 0 2.49 1.12 2.49 2.49s-1.12 2.49-2.49 2.49-2.49-1.12-2.49-2.49 1.11-2.49 2.49-2.49" style="fill:none;stroke:#797979;stroke-width:.5;stroke-linecap:round;stroke-linejoin:round;stroke-miterlimit:10"/>
  <path d="M114.47 62.85h45.41V73.9h-45.41z" style="fill:#fff;stroke:#797979;stroke-width:.5;stroke-linecap:round;stroke-linejoin:round;stroke-miterlimit:10"/>
  <path d="M158.49 62.6h33.25v33.33h-33.25z" style="fill:#fff;stroke:#797979;stroke-width:.5;stroke-linecap:round;stroke-linejoin:round;stroke-miterlimit:10" transform="rotate(90 175.12 79.263)"/>
  <path d="M158.45 94.24h33.34M175.8 79.13a1.25 1.25 0 0 0-1.77.08c-.06.07-.12.15-.17.23m1.73 2.59a1.86 1.86 0 0 0 .48-2.58c-.08-.11-.17-.22-.27-.31" style="fill:none;stroke:#797979;stroke-width:.5;stroke-linecap:round;stroke-linejoin:round;stroke-miterlimit:10"/>
  <path d="M171.5 80.12a2.624 2.624 0 0 0 4.1 1.91m-.27-5.74a3.83 3.83 0 0 0-3.83 3.83m7.67 0a3.83 3.83 0 0 0-3.83-3.83m-.97 8.62a4.79 4.79 0 0 0 4.79-4.79m-10.22-.64c0 3 2.43 5.43 5.43 5.43m.85-11.28a5.866 5.866 0 0 0-6.27 5.43c-.01.14-.01.28-.01.42m12.35.22c0-3.35-2.72-6.07-6.07-6.07" style="fill:none;stroke:#797979;stroke-width:.5;stroke-linecap:round;stroke-linejoin:round;stroke-miterlimit:10"/>
  <path d="M10.52 165.31h34.29v75H10.52z" style="fill:#fff;stroke:#797979;stroke-width:.5;stroke-linecap:round;stroke-linejoin:round;stroke-miterlimit:10" transform="rotate(180 27.665 202.812)"/>
  <path d="M44.85 214.74h-1.61m1.61-22.07h-1.61m-22.52 14.57h6.95m-.82-4.57-6.43 3.02m0 0c-.43.16-.64.62-.48 1.03.12.31.43.52.78.52m7.76-5.85c.8-.43 1.09-1.41.64-2.19-.45-.77-1.47-1.05-2.27-.61-.49.27-.81.75-.85 1.29m8.61 7.36h-6.94m.81-4.57 6.43 3.02m-.3 1.55c.46 0 .83-.36.83-.8 0-.33-.21-.63-.54-.75m-6.42-4.3c-.37.22-.48.69-.25 1.04.06.1.15.18.25.24m14.76 37.77v-75.13" style="fill:none;stroke:#797979;stroke-width:.5;stroke-linecap:round;stroke-linejoin:round;stroke-miterlimit:10"/>
  <path d="M19.4 308.32h113.53m0 113.09H19.4m121.35-105.27v97.45" style="fill:none;stroke:#797979;stroke-width:.5;stroke-linecap:round;stroke-linejoin:round;stroke-miterlimit:10;stroke-dasharray:1.5,3"/>
  <path d="M140.75 316.14c0-4.32-3.5-7.82-7.82-7.82m0 113.09c4.32 0 7.82-3.5 7.82-7.82" style="fill:none;stroke:#797979;stroke-width:.5;stroke-linecap:round;stroke-linejoin:round;stroke-miterlimit:10"/>
  <path d="M24.31 318.91c-6.12 0-11.09-4.96-11.09-11.09s4.96-11.09 11.09-11.09 11.09 4.96 11.09 11.09-4.96 11.09-11.09 11.09m0 113.08c-6.12 0-11.09-4.96-11.09-11.09s4.96-11.09 11.09-11.09 11.09 4.96 11.09 11.09-4.96 11.09-11.09 11.09" style="fill:#fff;stroke:#797979;stroke-width:.5;stroke-linecap:round;stroke-linejoin:round;stroke-miterlimit:10"/>
  <path d="M88.1 408.71c4.23 1.98 8.99 2.51 13.56 1.53 1.84.08 3.67.23 5.5.46 2.67.34 5.37.34 8.04 0 .21-.65.36-1.32.48-1.99h12.58v-88.69h-13.39c-.01-.6-.01-1.21-.02-1.81v.28c0-.76-.61-1.37-1.37-1.37-.06 0-.11 0-.17.01-3.1 1.2-6.45 1.61-9.75 1.2-4.72-.59-9.5-.6-14.22-.02-2.16.49-4.3 1.06-6.42 1.72H15.68a1.92 1.92 0 0 0-3.84 0v88.69a1.92 1.92 0 0 0 3.84 0H88.1z" style="fill:#fff;stroke:#797979;stroke-width:.5;stroke-linecap:round;stroke-linejoin:round;stroke-miterlimit:10"/>
  <path d="M34.04 361.01c-4.41-.69-8.9-.69-13.3 0m-.53-32.43c4.98.44 9.99.44 14.97 0m-1.14 32.43c1.92.74 3.99 1.02 6.04.82" style="fill:none;stroke:#797979;stroke-width:.5;stroke-linecap:round;stroke-linejoin:round;stroke-miterlimit:10"/>
  <path d="M40.13 327.63c-2.52-.29-5.32.08-7.63 1.14m7.58 33.06c.16-2.37.25-4.75.28-7.12m-.37-18.56c.11-2.84.16-5.68.14-8.51m-22.07 32.65c.75.61 1.72.87 2.68.72m-.53-32.43q-1.245-.105-2.49 0m1.04 21.21c-.68 3.46-.92 6.99-.71 10.51m.71-10.51c.22-5.85-.02-11.7-.73-17.51m-.32-3.7c-.02 1.24.09 2.48.33 3.69m2.7 37.17c4.41.69 8.9.69 13.3 0m1.13 32.43c-4.98-.44-9.99-.44-14.97 0m19.88-33.25c-2.05-.21-4.12.07-6.04.82" style="fill:none;stroke:#797979;stroke-width:.5;stroke-linecap:round;stroke-linejoin:round;stroke-miterlimit:10"/>
  <path d="M32.5 401.68c2.31 1.06 4.87 1.46 7.39 1.17m.48-27.11c-.03-2.38-.13-4.75-.28-7.12m.04 34.2c.02-2.84-.02-5.31-.14-8.15m-19.25-25.23c-.95-.15-1.93.11-2.68.72m-.35 31.71q1.245.105 2.49 0m-2.14-31.71c-.21 3.52.03 7.05.71 10.51m-.73 17.51c.71-5.81.95-11.67.73-17.51m-.73 17.51q-.36 1.83-.33 3.69m65.2-81.85h6.64m1.44 88.69c.79-8.51.98-17.06.57-25.59m-1.13-47.66c-.12 15.89.26 31.79 1.13 47.66m-1.13-47.66c.04-5.16-.26-10.32-.88-15.44m25.64 90.68c1.03-3.19.92-6.65-.32-9.76m-1.54-33.43c-.69 11.16-.17 22.37 1.53 33.43m-1.53-33.43c.75-12.17 1.26-24.36 1.51-36.55m0 0q.135-6.375 0-12.75m-99.16 90.5v-88.69m73.65-1.72c-2.16.49-4.3 1.06-6.42 1.72m43.51 86.86h-10.55m-72.39 0v-11.61m-27.8-73.48h74.08m1.23 86.92h-2.9m38.33-86.92v85.09m-35.27 0H15.68m99.21-85.09h11.53m-95.28 33.12c.6.05 1.2.05 1.79 0m14.08-8.29c.35-3.77.48-7.56.4-11.35m-.16 20.32q.03-4.485-.24-8.97m-5.24 8.15a10 10 0 0 0 5.31.84m-5.31-.84c-2.95-.17-5.9-.12-8.84.14m-1.56-2.65c-.17.87-.25 1.76-.24 2.65m.24-2.65q.495-4.05.57-8.13m-.55-7.78c-.16 2.61.03 5.22.55 7.78" style="fill:none;stroke:#797979;stroke-width:.5;stroke-linecap:round;stroke-linejoin:round;stroke-miterlimit:10"/>
  <path d="M33.31 335.84a2.42 2.42 0 0 0-1.92.52m1.92-.52c3.17.49 6.4.49 9.56 0m4.54-.57a9.34 9.34 0 0 0-4.53.57m-11.74 58.97c.6.05 1.2.05 1.79 0m14.08-8.29c.35-3.77.48-7.56.4-11.35m-.16 20.32q.03-4.485-.24-8.97m-5.24 8.15a10 10 0 0 0 5.31.84m-5.31-.84c-2.95-.17-5.9-.12-8.84.14m-1.56-2.66c-.17.87-.25 1.76-.24 2.65m.24-2.65q.495-4.05.57-8.13" style="fill:none;stroke:#797979;stroke-width:.5;stroke-linecap:round;stroke-linejoin:round;stroke-miterlimit:10"/>
  <path d="M31.39 376.25c-.16 2.61.03 5.22.55 7.78m1.37-8.3a2.42 2.42 0 0 0-1.92.52m1.92-.52c3.17.49 6.4.49 9.56 0m4.54-.57a9.34 9.34 0 0 0-4.53.57m.6-.21v-20.15m0-19.74v-13.84M14.8 421.41c0-2.98 2.42-5.4 5.4-5.4s5.4 2.42 5.4 5.4-2.42 5.4-5.4 5.4-5.4-2.42-5.4-5.4m5.41 0v-2.43m0 2.43v2.43m0-2.43h-2.43m2.43 0h2.43m6.85-114.61.35 4.85m-9.14-4.6 8.38-.6m-8.39 5.86-.35-4.85m9.14 4.6-8.38.6m8.39-5.86a.38.38 0 0 0-.41-.35m-8.38.6a.38.38 0 0 0-.35.41m.34 4.85c.02.21.2.37.41.35m8.38-.6c.21-.02.37-.2.35-.41m-1.09.46.05.75m-9.14-4.6.75-.05m-.75 5.31-.35-4.85m9.14 4.6-8.38.6m-.41-5.61a.38.38 0 0 0-.35.41m.35 4.85c.02.21.2.37.41.35m8.38-.6c.21-.02.37-.2.35-.41" style="fill:none;stroke:#797979;stroke-width:.5;stroke-linecap:round;stroke-linejoin:round;stroke-miterlimit:10"/>
  <path d="M136.39 165.31h34.29v75h-34.29z" style="fill:#fff;stroke:#797979;stroke-width:.5;stroke-linecap:round;stroke-linejoin:round;stroke-miterlimit:10"/>
  <path d="M136.36 214.74h1.6m-1.6-22.07h1.6m8.63 14.57h6.95m-.82-4.57-6.42 3.02m0 0c-.43.16-.64.62-.48 1.03.12.31.43.52.78.52m7.75-5.85c.8-.43 1.09-1.41.64-2.19-.45-.77-1.47-1.05-2.27-.61-.49.27-.81.75-.85 1.29m8.61 7.36h-6.94m.81-4.57 6.43 3.02m-.3 1.55c.46 0 .83-.36.83-.8 0-.33-.21-.63-.54-.75m-6.42-4.3c-.37.22-.48.69-.25 1.04.06.1.15.18.25.24m-16.39 37.77v-75.13" style="fill:none;stroke:#797979;stroke-width:.5;stroke-linecap:round;stroke-linejoin:round;stroke-miterlimit:10"/>
  <path d="M310.96 81.98h33v77.53h-33z" style="fill:#fff;stroke:#797979;stroke-width:.5;stroke-linecap:round;stroke-linejoin:round;stroke-miterlimit:10"/>
  <path d="M310.92 132.67h1.61m-1.61-22.07h1.61m7.99 14.57h6.94m-.81-4.57-6.43 3.02m0 0c-.43.16-.64.62-.48 1.03.12.31.43.52.78.52m7.76-5.85c.8-.43 1.09-1.41.64-2.19s-1.47-1.05-2.27-.61c-.49.27-.81.75-.85 1.29m8.61 7.36h-6.95m.82-4.57 6.42 3.02m-.29 1.55c.46 0 .83-.36.83-.8 0-.33-.21-.63-.54-.75m-6.42-4.3c-.37.22-.48.69-.25 1.04.06.1.15.18.25.24m-15.75 39.03V81.98" style="fill:none;stroke:#797979;stroke-width:.5;stroke-linecap:round;stroke-linejoin:round;stroke-miterlimit:10"/>
  <path d="M267.14 209.28h121.11v33.06H267.14z" style="fill:#fff;stroke:#797979;stroke-width:.5;stroke-linecap:round;stroke-linejoin:round;stroke-miterlimit:10" transform="rotate(-90 327.696 225.805)"/>
  <path d="M315.61 299.63v17.83c0 3.61-2.92 6.53-6.53 6.53h-10.76c-5.75 0-10.4-4.66-10.4-10.4v-10.16c0-5.77 4.68-10.45 10.45-10.45h10.58a6.643 6.643 0 0 1 6.66 6.65" style="fill:#fff;stroke:#797979;stroke-width:.5;stroke-linecap:round;stroke-linejoin:round;stroke-miterlimit:10"/>
  <path d="M299 295.74a8.31 8.31 0 0 0-8.31 8.31m17.66-8.31H299m-8.31 8.31v8.86m8.31 8.31h9.35m-17.66-8.31a8.31 8.31 0 0 0 8.31 8.31m7.97 2.77c.76 0 1.38-.62 1.38-1.38m0-28.25c0-.76-.62-1.38-1.38-1.38m1.38 29.62v-1.38m0-25.48v-1.38" style="fill:none;stroke:#797979;stroke-width:.5;stroke-linecap:round;stroke-linejoin:round;stroke-miterlimit:10"/>
  <path d="M315.61 335.19v17.83c0 3.61-2.92 6.53-6.53 6.53h-10.76c-5.75 0-10.4-4.66-10.4-10.4v-10.16c0-5.77 4.68-10.45 10.45-10.45h10.58c3.68 0 6.66 2.98 6.66 6.65" style="fill:#fff;stroke:#797979;stroke-width:.5;stroke-linecap:round;stroke-linejoin:round;stroke-miterlimit:10"/>
  <path d="M299 331.31a8.31 8.31 0 0 0-8.31 8.31m17.66-8.31H299m-8.31 8.3v8.86m8.31 8.31h9.35m-17.66-8.31a8.31 8.31 0 0 0 8.31 8.31m7.97 2.77c.76 0 1.38-.62 1.38-1.38m0-28.25c0-.76-.62-1.38-1.38-1.38m1.38 29.63v-1.39m0-25.47v-1.39" style="fill:none;stroke:#797979;stroke-width:.5;stroke-linecap:round;stroke-linejoin:round;stroke-miterlimit:10"/>
  <path d="M311.31 285.6h33.05v171.31h-33.05z" style="fill:#fff;stroke:#797979;stroke-width:.5;stroke-linecap:round;stroke-linejoin:round;stroke-miterlimit:10" transform="rotate(180 327.835 371.26)"/>
  <path d="M344.22 432.03v-62.35c0-3.95-3.2-7.15-7.15-7.15h-4.88c-3.95 0-7.15 3.2-7.15 7.15v62.35c0 3.95 3.2 7.15 7.15 7.15h4.88c3.95-.01 7.15-3.2 7.15-7.15m-9.56-56.73v52m-110.29-32.92v-46.37c0-1.5-1.21-2.71-2.71-2.71h-40.25c-1.6 0-2.9 1.3-2.9 2.9v44.9c0 1.5 1.21 2.71 2.71 2.71h41.72c.79 0 1.43-.64 1.43-1.43m0 2.87v46.41c0 1.5-1.21 2.71-2.71 2.71h-40.25c-1.6 0-2.9-1.3-2.9-2.9v-44.94c0-1.5 1.21-2.71 2.71-2.71h41.72c.79-.01 1.43.63 1.43 1.43" style="fill:#fff;stroke:#797979;stroke-width:.5;stroke-linecap:round;stroke-linejoin:round;stroke-miterlimit:10"/>
  <path d="M186.21 430.51c1.17 3.54 1.93 7.2 2.27 10.9m2.6.95c-.6.6-1.57.59-2.17-.01-.25-.25-.4-.58-.44-.94m13.27-5.46c-3.48 2.25-7.04 4.39-10.66 6.41m10.66-6.41a2.93 2.93 0 0 1 1.66 0m-12.67-12.15c-.82.3-1.64.57-2.48.79m15.78 9.23c.43.72.19 1.65-.53 2.08-.03.02-.06.04-.09.05m-4.32-14.85c2.2 3.95 3.33 8.4 3.29 12.93" style="fill:none;stroke:#797979;stroke-width:.5;stroke-linecap:round;stroke-linejoin:round;stroke-miterlimit:10"/>
  <path d="M204.03 433.82a8.9 8.9 0 0 1-1.91-3.78m-18.03-5.45c1.38-.2 2.78-.2 4.16 0m-4.16 1.94a2.5 2.5 0 0 1 0-1.94m2.12 5.92c-.84-1.25-1.55-2.59-2.12-3.98m10.71-18.3c-2.54-.38-5.04-.92-7.51-1.63m-.62 2.17c.78 3.71 1.36 7.46 1.74 11.23m9.98-10.91c2.52 3.24 3.44 7.45 2.52 11.45m-1.04-1.28a29.2 29.2 0 0 1-5.74 5.31m-.01 0a5.11 5.11 0 0 1-5.7-4.45c0-.04-.01-.08-.01-.12" style="fill:none;stroke:#797979;stroke-width:.5;stroke-linecap:round;stroke-linejoin:round;stroke-miterlimit:10"/>
  <path d="M186.67 408.77c-.17-.78.07-1.59.63-2.17m6.78-.67a8.2 8.2 0 0 1-3.91 1.42m3.91-1.42c1.7.63 3.2 1.73 4.31 3.16m-.81 12.63c1.07-.49 2.19-.89 3.33-1.18m-12.43-70.29a49.4 49.4 0 0 1-2.27 10.9m2.27-10.9c.08-.84.82-1.46 1.67-1.38.35.03.68.19.94.44m-.01-.01c3.62 2.02 7.17 4.16 10.66 6.41m1.66.01c-.54.16-1.12.16-1.66 0m-13.49 11.36c.84.22 1.67.49 2.48.79m12.67-12.15c.75.38 1.05 1.29.67 2.03-.02.03-.03.06-.05.09m-1.64-.2c.04 4.52-1.09 8.97-3.29 12.93" style="fill:none;stroke:#797979;stroke-width:.5;stroke-linecap:round;stroke-linejoin:round;stroke-miterlimit:10"/>
  <path d="M202.11 361.63c.33-1.4.98-2.69 1.91-3.78m-15.77 9.23c-1.38.2-2.78.2-4.16 0m0 0a2.5 2.5 0 0 1 0-1.94m0 0c.57-1.39 1.28-2.73 2.12-3.98m1.08 23.91c2.46-.71 4.97-1.26 7.51-1.63m-6.39-11.77c-.37 3.77-.96 7.52-1.74 11.23m14.24-11.77c.92 4 0 8.21-2.52 11.45m-4.27-15.48c2.14 1.51 4.08 3.29 5.74 5.31m-11.45-.74a5.11 5.11 0 0 1 5.59-4.58c.04 0 .08.01.12.01m-6.83 17.97a2.41 2.41 0 0 1-.63-2.17" style="fill:none;stroke:#797979;stroke-width:.5;stroke-linecap:round;stroke-linejoin:round;stroke-miterlimit:10"/>
  <path d="M190.17 384.32c1.4.13 2.75.62 3.91 1.42m4.31-3.16a9.7 9.7 0 0 1-4.31 3.16m6.83-14.61c-1.14-.29-2.26-.69-3.33-1.18m-6.87 14.44v11.42m4.96-43.86h28.7m-33.66 55.33v-11.47m4.96 43.91h28.7m106.74-243.75h11.67m-3.3-10.55v20.56c0 1.84-1.49 3.33-3.33 3.33h-17.78c-1.84 0-3.33-1.49-3.33-3.33v-20.56c0-1.84 1.49-3.33 3.33-3.33h17.78a3.32 3.32 0 0 1 3.33 3.33m-19.15 69.55c1.93 0 3.5-1.49 3.5-3.33s-1.57-3.33-3.5-3.33-3.5 1.49-3.5 3.33 1.56 3.33 3.5 3.33m0 12.78c1.93 0 3.5-1.49 3.5-3.33s-1.57-3.33-3.5-3.33-3.5 1.49-3.5 3.33 1.56 3.33 3.5 3.33m15.16 0c1.93 0 3.5-1.49 3.5-3.33s-1.57-3.33-3.5-3.33-3.5 1.49-3.5 3.33 1.56 3.33 3.5 3.33m0-12.78c1.93 0 3.5-1.49 3.5-3.33s-1.57-3.33-3.5-3.33-3.5 1.49-3.5 3.33 1.56 3.33 3.5 3.33" style="fill:none;stroke:#797979;stroke-width:.5;stroke-linecap:round;stroke-linejoin:round;stroke-miterlimit:10"/>
  <path d="M163.67 208.67h57.06v33.89h-57.06z" style="fill:#fff;stroke:#797979;stroke-width:.5;stroke-linecap:round;stroke-linejoin:round;stroke-miterlimit:10" transform="rotate(90 192.194 225.61)"/>
  <path d="M175.81 165.25h33.33v33.33h-33.33z" style="fill:#fff;stroke:#797979;stroke-width:.5;stroke-linecap:round;stroke-linejoin:round;stroke-miterlimit:10" transform="rotate(-90 192.472 181.917)"/>
  <path d="M207.49 198.58v-33.33m-15.02 12.08v9.17m3.97-6.88-7.94 4.59m7.94 0-7.94-4.59" style="fill:none;stroke:#797979;stroke-width:.5;stroke-linecap:round;stroke-linejoin:round;stroke-miterlimit:10"/>
  <path d="M50.38 247.73h44.44v1.55H50.38z" style="fill:#fff;stroke:#797979;stroke-width:.5;stroke-linecap:round;stroke-linejoin:round;stroke-miterlimit:10" transform="rotate(-180 72.604 248.502)"/>
  <path d="M32.37 246.18h44.44v1.55H32.37z" style="fill:#fff;stroke:#797979;stroke-width:.5;stroke-linecap:round;stroke-linejoin:round;stroke-miterlimit:10" transform="rotate(-180 54.592 246.954)"/>
  <path d="M333.02 223.16v3.88m0 0c0 1.52-1.23 2.75-2.75 2.75m0 0v4.66m0 0h2.53m.22-11.29h-2.75m-2.75 0v3.88m2.75 2.75c-1.52 0-2.75-1.23-2.75-2.75m2.75 7.41h-2.52m-.23-11.29h2.75m-3.92 0v2.99m0 0c0 .79-.64 1.43-1.43 1.43m0 .01v6.86m-1.43-11.29v2.99m1.43 1.44c-.79 0-1.43-.64-1.43-1.43m1.93-3v2.72m-.93-2.72v2.72" style="fill:none;stroke:#797979;stroke-width:.5;stroke-linecap:round;stroke-linejoin:round;stroke-miterlimit:10"/>
  <path d="M298.98 453.6h-71.03v8.65h71.03z" style="fill-rule:evenodd;clip-rule:evenodd;fill:#f4f2f1"/>
  <path d="M233.4 462.25v-8.65m6.18 8.65v-8.65m-3.11 8.65v-8.65m-5.89 8.65v-8.65m12.04 8.65v-8.65m6.14 8.65v-8.65m6.15 8.65v-8.65m6.15 8.65v-8.65m6.15 8.65v-8.65m6.15 8.65v-8.65m-27.6 8.65v-8.65m6.18 8.65v-8.65m6.18 8.65v-8.65m6.18 8.65v-8.65m6.18 8.65v-8.65m5.75 8.65v-8.65m2.88 8.65v-8.65m2.87 8.65v-8.65m2.88 8.65v-8.65m2.87 8.65v-8.65m2.88 8.65v-8.65m2.87 8.65v-8.65m2.88 8.65v-8.65" style="fill:none;stroke:#cdc4be;stroke-width:.5;stroke-linecap:round;stroke-linejoin:round;stroke-miterlimit:10"/>
  <path d="M227.97 462.25h71.01m-71.01-8.65h71.01" style="fill:none;stroke:#797979;stroke-width:.2551;stroke-linecap:round;stroke-linejoin:round;stroke-miterlimit:10;stroke-dasharray:2.9,3.3333"/>
  <path d="M298.99 462.25v-8.65m-71.04 0v8.65" style="fill:none;stroke:#797979;stroke-width:.2551;stroke-linecap:round;stroke-linejoin:round;stroke-miterlimit:10"/>
  <path d="M135.04 453.6H64.01v8.65h71.03z" style="fill-rule:evenodd;clip-rule:evenodd;fill:#f4f2f1"/>
  <path d="M69.46 462.25v-8.65m6.18 8.65v-8.65m-3.11 8.65v-8.65m-5.89 8.65v-8.65m12.04 8.65v-8.65m6.14 8.65v-8.65m6.15 8.65v-8.65m6.15 8.65v-8.65m6.15 8.65v-8.65m6.15 8.65v-8.65m-27.6 8.65v-8.65m6.18 8.65v-8.65m6.18 8.65v-8.65m6.18 8.65v-8.65m6.18 8.65v-8.65m5.75 8.65v-8.65m2.88 8.65v-8.65m2.87 8.65v-8.65m2.88 8.65v-8.65m2.87 8.65v-8.65m2.88 8.65v-8.65m2.87 8.65v-8.65m2.88 8.65v-8.65" style="fill:none;stroke:#cdc4be;stroke-width:.5;stroke-linecap:round;stroke-linejoin:round;stroke-miterlimit:10"/>
  <path d="M64.03 462.25h71.01m-71.01-8.65h71.01" style="fill:none;stroke:#797979;stroke-width:.2551;stroke-linecap:round;stroke-linejoin:round;stroke-miterlimit:10;stroke-dasharray:2.9,3.3333"/>
  <path d="M135.04 462.25v-8.65m-71.03 0v8.65" style="fill:none;stroke:#797979;stroke-width:.2551;stroke-linecap:round;stroke-linejoin:round;stroke-miterlimit:10"/>
  <path d="M241.89 165.25h28.41" style="fill:none;stroke:#2f4033;stroke-width:.5;stroke-linecap:round;stroke-linejoin:round;stroke-miterlimit:10;stroke-dasharray:11,5"/>
  <path d="M298.81 51.08C299.78 20.48 274 .25 248.28.25" style="fill:none;stroke:#000;stroke-width:.5;stroke-linecap:round;stroke-linejoin:round;stroke-miterlimit:10"/>
  <path d="M246.06.25h2.22v50.83h-2.22z" style="fill:#fff;stroke:#000;stroke-width:.5;stroke-linecap:round;stroke-linejoin:round;stroke-miterlimit:10" transform="rotate(180 247.167 25.667)"/>
  <path d="M91.33 165.26c.3 22.72 17.98 37.69 36.68 38.87" style="fill:none;stroke:#797979;stroke-width:.5;stroke-linecap:round;stroke-linejoin:round;stroke-miterlimit:10;stroke-dasharray:6,5"/>
  <path d="M128.01 165.26h2.22v38.87h-2.22z" style="fill:#fff;stroke:#000;stroke-width:.5;stroke-linecap:round;stroke-linejoin:round;stroke-miterlimit:10"/>
  <path d="M197.45 112.47c22.72.3 37.69 17.98 38.87 36.68" style="fill:none;stroke:#797979;stroke-width:.5;stroke-linecap:round;stroke-linejoin:round;stroke-miterlimit:10;stroke-dasharray:6,5"/>
  <path d="M215.78 130.82H218v38.87h-2.22z" style="fill:#fff;stroke:#000;stroke-width:.5;stroke-linecap:round;stroke-linejoin:round;stroke-miterlimit:10" transform="rotate(90 216.889 150.256)"/>
  <path d="M169.66 304.14c-22.72-.3-42.89-17.23-44.43-42.23" style="fill:none;stroke:#797979;stroke-width:.5;stroke-linecap:round;stroke-linejoin:round;stroke-miterlimit:10;stroke-dasharray:6,5"/>
  <path d="M146.33 238.58h2.22v44.43h-2.22z" style="fill:#fff;stroke:#000;stroke-width:.5;stroke-linecap:round;stroke-linejoin:round;stroke-miterlimit:10" transform="rotate(-90 147.444 260.8)"/>
  <path d="M116.75 448.99h8.33v40.85h-8.33z" style="fill:none;stroke:#000;stroke-width:.5;stroke-linecap:round;stroke-linejoin:round;stroke-miterlimit:10" transform="rotate(90 120.917 469.417)"/>
  <path d="M138.56 473.58v-8.33m-38.07 6.22h38.07m-38.07-2.78h38.07" style="fill:none;stroke:#000;stroke-width:.5;stroke-linecap:round;stroke-linejoin:round;stroke-miterlimit:10"/>
  <path d="M74.51 447.6h8.33v43.63h-8.33z" style="fill:none;stroke:#000;stroke-width:.5;stroke-linecap:round;stroke-linejoin:round;stroke-miterlimit:10" transform="rotate(90 78.676 469.417)"/>
  <path d="M59.64 473.58v-8.33m38.07 8.33v-8.33m-38.07 6.22h38.07m-38.07-2.78h38.07" style="fill:none;stroke:#000;stroke-width:.5;stroke-linecap:round;stroke-linejoin:round;stroke-miterlimit:10"/>
  <path d="M280.64 448.99h8.33v40.85h-8.33z" style="fill:none;stroke:#000;stroke-width:.5;stroke-linecap:round;stroke-linejoin:round;stroke-miterlimit:10" transform="rotate(90 284.806 469.417)"/>
  <path d="M302.45 473.58v-8.33m-38.07 6.22h38.07m-38.07-2.78h38.07" style="fill:none;stroke:#000;stroke-width:.5;stroke-linecap:round;stroke-linejoin:round;stroke-miterlimit:10"/>
  <path d="M238.4 447.6h8.33v43.63h-8.33z" style="fill:none;stroke:#000;stroke-width:.5;stroke-linecap:round;stroke-linejoin:round;stroke-miterlimit:10" transform="rotate(90 242.565 469.417)"/>
  <path d="M223.53 473.58v-8.33m38.07 8.33v-8.33m-38.07 6.22h38.07m-38.07-2.78h38.07M9.45 495.81h340.68" style="fill:none;stroke:#000;stroke-width:.5;stroke-linecap:round;stroke-linejoin:round;stroke-miterlimit:10"/>
  <path d="M220.77 465.25h-2.21v-8.33h-43.34V304.14h-5.55v152.78h-26.11v8.33h-2.22v8.33h-.01v11.11h28.61v11.12h5.56v-11.12h11.11v11.12h5.56v-11.12h28.61v-11.11h-.01zm-93.6-416.67H.5v436.11h5.56v11.12h5.55v-11.12h11.11v11.12h5.56v-11.12h28.61v-11.11h-.01v-8.33h-2.21v-8.33H11.61V245.81h33.06v-5.56H11.61v-75h79.74v-5.56H36.33V62.47h155.56v49.97h5.55V87.47h44.45v-25h6.39V50.25H127.17zm171.66 1.67v10.56h12.23v21.11h33.33v77.77h-33.33v5.56h33.33v291.67h-36.95v8.33h-2.21v8.33h-.01v11.11h27.61v11.12h5.56v-11.12h11.11v11.12h5.56v-11.12h.44V50.25z" style="fill-rule:evenodd;clip-rule:evenodd;fill:#b9ccbd;stroke:#000;stroke-miterlimit:10"/>
  <path d="M197.44 151.36h-5.55v8.33h-61.67v5.56h39.45v75h-33.34v5.56h33.34v13.88h5.55v-94.44h66.67v-5.56h-44.45z" style="fill-rule:evenodd;clip-rule:evenodd;fill:#b9ccbd;stroke:#000;stroke-miterlimit:10"/>
  <path d="M316.61 60.81h27.78v15.56h-27.78zm-119.17 1.66h38.89v19.44h-38.89zm-186.11 0h19.44v15H11.33zm0 20.56h19.44v76.67H11.33z" style="fill:#b9ccbd;stroke:#000;stroke-width:.25;stroke-miterlimit:10"/>
  <g id="g1">
	<path id="g1_path" style="fill:none;" d="M172.78,244.63H7.08V165.1h165.71V244.63z"/>
	
		<text id="g1_text" transform="matrix(1 0 0 1 87.5725 220.9738)" style="fill: rgb(98, 121, 99); font-family: EuclidSquare-Medium; font-size: 13px; text-anchor: middle; text-align: center;">4.01</text>
</g>
  <g id="h1">
	<path id="h1_path" style="fill:none;" d="M349.6,60.68v33.64v71h-92.64l0,0h-59.47v-31.98v-7.69V60.68H349.6z"/>
	
		<text id="h1_text" transform="matrix(1 0 0 1 260.3605 126.1712)" style="fill: rgb(98, 121, 99); font-family: EuclidSquare-Medium; font-size: 13px; text-anchor: middle; text-align: center;">4.22</text>
</g>
  <g id="s1">
	<path id="s1_path" style="fill:none;" d="M197.13,56.98v108.17H60.87v-0.01H30.56V56.98h30.32H72.5H197.13z"/>
	
		<text id="s1_text" transform="matrix(1 0 0 1 114.7021 133.6683)" style="fill: rgb(98, 121, 99); font-family: EuclidSquare-Medium; font-size: 13px; text-anchor: middle; text-align: center;">4.9</text>
</g>
  <g id="c1">
	<path id="c1_path" style="fill:none;" d="M172.31,465.1v-90.82h-0.12V165.1h176.71l0,300L172.31,465.1z"/>
	
		<text id="c1_text" transform="matrix(0.9558 0 0 1 223.3749 285.6051)" style="fill: rgb(98, 121, 99); font-family: EuclidSquare-Medium; font-size: 13.6008px; text-anchor: middle; text-align: center;">16.25</text>
</g>
  <g id="r1">
	<path id="r1_path" style="fill:none;" d="M172.19,244.63v219.76H9.14V285.76l0,0v-41.14H172.19z"/>
	
		<text id="r1_text" transform="matrix(1 0 0 1 88.3932 288.6896)" style="fill: rgb(98, 121, 99); font-family: EuclidSquare-Medium; font-size: 13px; text-anchor: middle; text-align: center;">11.06</text>
</g>
</svg>
